<svg width="18" height="18" viewBox="0 0 18 18" fill="none" xmlns="http://www.w3.org/2000/svg">
<g id="Group 343">
<path id="Vector" d="M0.999989 1L4.00574 1L5.07651 11.6462C5.12102 11.9396 5.27009 12.2071 5.49626 12.3994C5.72243 12.5916 6.01046 12.6957 6.30728 12.6923H14.0611C14.3295 12.7063 14.5951 12.6321 14.8174 12.481C15.0396 12.3298 15.2063 12.1101 15.2919 11.8554L16.9288 6.93231C16.9898 6.74722 17.0061 6.55028 16.9761 6.35771C16.9461 6.16513 16.8709 5.98242 16.7565 5.82462C16.6374 5.65684 16.478 5.52161 16.2931 5.4313C16.1082 5.341 15.9036 5.2985 15.698 5.30769H4.43651" stroke="#F9FDFF" stroke-width="2" stroke-linecap="round" stroke-linejoin="round"/>
<path id="Vector_2" d="M13.8519 17C13.512 17 13.2365 16.7245 13.2365 16.3846C13.2365 16.0447 13.512 15.7692 13.8519 15.7692C14.1918 15.7692 14.4673 16.0447 14.4673 16.3846C14.4673 16.7245 14.1918 17 13.8519 17Z" stroke="#F9FDFF" stroke-width="2" stroke-linecap="round" stroke-linejoin="round"/>
<path id="Vector_3" d="M5.8519 17C5.51203 17 5.23652 16.7245 5.23652 16.3846C5.23652 16.0447 5.51203 15.7692 5.8519 15.7692C6.19177 15.7692 6.46729 16.0447 6.46729 16.3846C6.46729 16.7245 6.19177 17 5.8519 17Z" stroke="#F9FDFF" stroke-width="2" stroke-linecap="round" stroke-linejoin="round"/>
</g>
</svg>
