<svg width="58" height="58" viewBox="0 0 58 58" fill="none" xmlns="http://www.w3.org/2000/svg">
<g id="Property 1=Default">
<path id="shape" d="M36.5455 16.3233C37.5219 15.347 37.5219 13.7641 36.5455 12.7878C35.5692 11.8115 33.9863 11.8115 33.01 12.7878L36.5455 16.3233ZM20.3333 29L18.5656 27.2322C17.5893 28.2085 17.5893 29.7915 18.5656 30.7678L20.3333 29ZM33.01 45.2122C33.9863 46.1885 35.5692 46.1885 36.5455 45.2122C37.5219 44.2359 37.5219 42.653 36.5455 41.6767L33.01 45.2122ZM33.01 12.7878L18.5656 27.2322L22.1011 30.7678L36.5455 16.3233L33.01 12.7878ZM18.5656 30.7678L33.01 45.2122L36.5455 41.6767L22.1011 27.2322L18.5656 30.7678ZM52.5 29C52.5 41.9787 41.9787 52.5 29 52.5V57.5C44.7401 57.5 57.5 44.7401 57.5 29H52.5ZM29 52.5C16.0213 52.5 5.5 41.9787 5.5 29H0.5C0.5 44.7401 13.2599 57.5 29 57.5V52.5ZM5.5 29C5.5 16.0213 16.0213 5.5 29 5.5V0.5C13.2599 0.5 0.5 13.2599 0.5 29H5.5ZM29 5.5C41.9787 5.5 52.5 16.0213 52.5 29H57.5C57.5 13.2599 44.7401 0.5 29 0.5V5.5Z" fill="#223270"/>
</g>
</svg>
